<?xml version="1.0" encoding="UTF-8"?>
<svg version="1.1" xmlns="http://www.w3.org/2000/svg" width="512" height="512">
<path d="M0 0 C4.5919722 0.43396936 8.00363639 1.79059046 12.0546875 3.94140625 C13.16328125 4.52470703 14.271875 5.10800781 15.4140625 5.70898438 C16.55617187 6.32064453 17.69828125 6.93230469 18.875 7.5625 C20.0403125 8.17802734 21.205625 8.79355469 22.40625 9.42773438 C25.27490097 10.94435722 28.13920156 12.46863142 31 14 C31 14.66 31 15.32 31 16 C31.82886719 16.21269531 32.65773438 16.42539062 33.51171875 16.64453125 C37.89427768 18.34749648 41.12727006 20.81389808 44.8125 23.6875 C45.864375 24.49453369 45.864375 24.49453369 46.9375 25.31787109 C48.3276032 26.38582237 49.71521438 27.45702662 51.10009766 28.53173828 C52.73581328 29.79583411 54.38789847 31.0386968 56.04296875 32.27734375 C57.25919922 33.19193359 57.25919922 33.19193359 58.5 34.125 C59.1909375 34.64320312 59.881875 35.16140625 60.59375 35.6953125 C61.28984375 36.34113281 61.28984375 36.34113281 62 37 C62 37.66 62 38.32 62 39 C62.8353125 39.37125 62.8353125 39.37125 63.6875 39.75 C68.926566 42.58192757 72.4995097 46.59209758 76.3125 51.0625 C78.0755955 53.13988366 78.0755955 53.13988366 80.5 55.4375 C84.83213523 59.87793861 88.56140655 64.84210982 92 70 C92.41958984 68.94425781 92.41958984 68.94425781 92.84765625 67.8671875 C102.24923954 44.71087624 117.7484854 17.61003764 142 7 C148.73174745 7.62459512 154.22384609 14.98741002 158.40625 19.7265625 C160.64824763 22.4522788 162.83215194 25.21508658 165 28 C165.90878906 29.10988281 165.90878906 29.10988281 166.8359375 30.2421875 C180 46.50367647 180 46.50367647 180 53 C180.66 53 181.32 53 182 53 C182 54.32 182 55.64 182 57 C182.66 57 183.32 57 184 57 C184.77351525 58.97812004 185.54365704 60.95755929 186.3125 62.9375 C186.74175781 64.03964844 187.17101562 65.14179687 187.61328125 66.27734375 C189.18109868 70.48616067 190.60610142 74.73107201 192 79 C192.648479 79.04487549 193.29695801 79.08975098 193.96508789 79.13598633 C225.58659164 81.38406667 225.58659164 81.38406667 236.87109375 86.13671875 C238.5871555 86.83258966 240.33869411 87.44060424 242.09765625 88.01953125 C256.06652919 92.64488342 267.53442592 99.83770225 279 109 C279.75925781 109.60457031 280.51851563 110.20914063 281.30078125 110.83203125 C282.91692731 112.16316558 284.46818576 113.57262764 286 115 C286 115.66 286 116.32 286 117 C286.66 117 287.32 117 288 117 C289.9383786 119.23341339 291.76186519 121.47236642 293.5625 123.8125 C294.06974609 124.45509766 294.57699219 125.09769531 295.09960938 125.75976562 C297.27052883 128.54929594 298.86992232 130.60976696 300 134 C300.9590625 134.4640625 300.9590625 134.4640625 301.9375 134.9375 C304.45468915 136.2342338 304.96886948 137.4221737 306 140 C306.66 140 307.32 140 308 140 C308 140.66 308 141.32 308 142 C308.74507813 142.26554688 309.49015625 142.53109375 310.2578125 142.8046875 C312.96259255 143.98369419 314.65740883 145.21021244 316.875 147.125 C338.53183794 164.34308107 370.93364281 172.15311916 398 174 C399.25955231 177.77865693 398.48087189 179.03411786 397.0625 182.6875 C396.68222656 183.68136719 396.30195313 184.67523438 395.91015625 185.69921875 C395.60980469 186.45847656 395.30945313 187.21773437 395 188 C394.34 188 393.68 188 393 188 C392.88785156 188.70511719 392.77570313 189.41023437 392.66015625 190.13671875 C391.93685092 193.27389512 390.80542309 195.90127906 389.4375 198.8125 C388.98246094 199.78832031 388.52742188 200.76414063 388.05859375 201.76953125 C387.70925781 202.50558594 387.35992187 203.24164063 387 204 C386.34 204 385.68 204 385 204 C384.72414063 204.73863281 384.44828125 205.47726563 384.1640625 206.23828125 C379.23246975 217.93840229 368.98908775 229.23470697 360 238 C359.34 238 358.68 238 358 238 C358 238.66 358 239.32 358 240 C341.97008503 255.75822149 321.08997643 265.29426059 299.20507812 269.04907227 C295.49132697 269.65802863 295.49132697 269.65802863 292 271 C290.37906723 271.27513988 288.75286962 271.51942357 287.125 271.75 C265.32710577 275.34846472 243.9587137 282.23641729 224.51171875 292.78515625 C222 294 222 294 219 294 C219 294.66 219 295.32 219 296 C218.36835938 296.32871094 217.73671875 296.65742188 217.0859375 296.99609375 C205.98757643 302.89709553 195.48510312 309.41745381 185.890625 317.56640625 C184 319 184 319 182 319 C181.73960937 319.59167969 181.47921875 320.18335938 181.2109375 320.79296875 C179.92580626 323.13522408 178.58779949 324.51683846 176.625 326.3125 C173.22416774 329.59263467 171.1413554 332.80294342 169 337 C168.34 337 167.68 337 167 337 C167 337.99 167 338.98 167 340 C166.34 340 165.68 340 165 340 C164.7525 340.639375 164.505 341.27875 164.25 341.9375 C162.59188428 345.99988351 160.7964416 349.99724906 159 354 C158.34 354 157.68 354 157 354 C156.81824219 354.60585938 156.63648438 355.21171875 156.44921875 355.8359375 C155.91950974 357.60163419 155.38954285 359.36725353 154.859375 361.1328125 C154.30536414 362.98119419 153.75314394 364.83011401 153.203125 366.6796875 C151.14222441 373.5984252 151.14222441 373.5984252 149.9375 377 C141.5469893 403.84963424 145.85600897 432.33196969 156.984375 457.546875 C157.87558011 459.69947812 158.51151405 461.7274784 159 464 C159.66 464 160.32 464 161 464 C161.25652344 464.52207031 161.51304687 465.04414063 161.77734375 465.58203125 C169.21601471 479.88331447 184.21547706 498.73849235 200 504 C200 504.66 200 505.32 200 506 C168.7209783 507.74045063 137.31503945 500.23878229 109 487 C109.14381104 487.66153076 109.28762207 488.32306152 109.43579102 489.00463867 C109.77880859 490.58251953 110.12182617 492.16040039 110.46484375 493.73828125 C110.99886159 496.145401 110.99886159 496.145401 112 499 C107.21297789 498.34424355 103.24806283 496.44081872 98.9375 494.375 C98.18452637 494.01672119 97.43155273 493.65844238 96.65576172 493.28930664 C90.22956937 490.18981514 84.06886061 486.75288873 78 483 C76.95070313 482.36578125 75.90140625 481.7315625 74.8203125 481.078125 C69.01527238 477.50352015 69.01527238 477.50352015 67 476 C67 475.34 67 474.68 67 474 C66.28199219 473.75378906 65.56398438 473.50757813 64.82421875 473.25390625 C54.00837517 468.45185122 44.20503902 457.46144649 36 449 C35.34 448.34 34.68 447.68 34 447 C32.42445965 449.88628401 31.53723627 452.53342384 30.875 455.75 C30.70742187 456.54921875 30.53984375 457.3484375 30.3671875 458.171875 C30.24601562 458.77515625 30.12484375 459.3784375 30 460 C26.38522825 458.50198648 24.31379537 456.42462583 21.75 453.5 C21.04359375 452.7059375 20.3371875 451.911875 19.609375 451.09375 C18 449 18 449 18 447 C17.01 446.67 16.02 446.34 15 446 C13.65307617 444.39282227 13.65307617 444.39282227 12.29296875 442.31640625 C11.79176514 441.55875977 11.29056152 440.80111328 10.77416992 440.02050781 C10.25056885 439.20936523 9.72696777 438.39822266 9.1875 437.5625 C8.64778564 436.73717773 8.10807129 435.91185547 7.55200195 435.06152344 C6.02375498 432.71449844 4.50876815 430.35958126 3 428 C2.38125 427.03449219 1.7625 426.06898438 1.125 425.07421875 C-13.46565939 401.48334283 -21.81801617 375.27658093 -26 348 C-26.99 350.31 -27.98 352.62 -29 355 C-29.66 355 -30.32 355 -31 355 C-31.33 356.65 -31.66 358.3 -32 360 C-33.32 360.33 -34.64 360.66 -36 361 C-38.59867167 350.14478924 -38.37226205 339.1327056 -38.37060547 328.03857422 C-38.37497157 324.7712766 -38.41136118 321.50534041 -38.44921875 318.23828125 C-38.51705345 305.35164714 -37.37603 294.30020632 -33.35351562 282.02758789 C-32.81366573 278.93128029 -33.10170721 275.98662764 -33.3046875 272.85546875 C-33.36984055 271.82345085 -33.36984055 271.82345085 -33.43630981 270.77058411 C-33.52930633 269.31716116 -33.62530992 267.86392789 -33.72412109 266.41088867 C-33.8737476 264.20595562 -34.01385869 262.00057981 -34.15234375 259.79492188 C-34.60173412 252.25318581 -34.60173412 252.25318581 -35.51147461 244.75817871 C-36.01527412 240.88249765 -36.1408565 237.09930624 -36.12939453 233.20043945 C-36.13114685 232.4548175 -36.13289917 231.70919556 -36.13470459 230.940979 C-36.13907402 228.49838879 -36.13620343 226.05587208 -36.1328125 223.61328125 C-36.13348674 221.90650926 -36.13445776 220.19973736 -36.13571167 218.4929657 C-36.1371818 214.92653483 -36.13505532 211.3601291 -36.13037109 207.79370117 C-36.1246612 203.22394732 -36.1279651 198.65425204 -36.13394356 194.08450031 C-36.13755656 190.564647 -36.1364074 187.04480758 -36.13381577 183.52495384 C-36.13314922 181.83965231 -36.1339654 180.15434951 -36.13629532 178.46904945 C-36.13883538 176.11645788 -36.1349627 173.76396144 -36.12939453 171.41137695 C-36.13141876 170.7167485 -36.13344299 170.02212006 -36.13552856 169.30644226 C-36.12120042 166.03783331 -35.92174898 163.13626935 -35 160 C-34.76200281 157.58771191 -34.5630023 155.17148781 -34.38671875 152.75390625 C-34.27450439 151.27494591 -34.16177065 149.79602491 -34.04858398 148.31713867 C-33.99000214 147.54131439 -33.93142029 146.76549011 -33.87106323 145.96615601 C-32.89292383 133.15797754 -31.7001514 120.41280189 -29.9375 107.6875 C-29.77531982 106.50422119 -29.61313965 105.32094238 -29.44604492 104.10180664 C-28.64924551 98.57110513 -27.62430448 93.35581477 -26 88 C-25.45365474 85.58208027 -24.95426702 83.15633266 -24.45263672 80.72875977 C-22.25021465 70.08620207 -19.67020373 59.56217555 -16.875 49.0625 C-16.53839355 47.78947021 -16.20178711 46.51644043 -15.85498047 45.20483398 C-14.1808594 38.9854287 -12.32330274 33.00239584 -10 27 C-9.04842923 24.01573888 -8.17606795 21.01074746 -7.3125 18 C-7.08755859 17.22527344 -6.86261719 16.45054688 -6.63085938 15.65234375 C-6.08446633 13.76903154 -5.54183106 11.88462976 -5 10 C-4.34 10 -3.68 10 -3 10 C-2.86722656 9.36191406 -2.73445313 8.72382813 -2.59765625 8.06640625 C-2.42105469 7.24011719 -2.24445312 6.41382813 -2.0625 5.5625 C-1.88847656 4.73878906 -1.71445312 3.91507812 -1.53515625 3.06640625 C-1 1 -1 1 0 0 Z " fill="#F2F2F2" transform="translate(62,3)"/>
<path d="M0 0 C1.84375 0.5234375 1.84375 0.5234375 4 2 C5.03630697 4.58474239 5.80760628 6.94852998 6.5 9.625 C6.70866699 10.38264648 6.91733398 11.14029297 7.13232422 11.92089844 C7.77412583 14.27596328 8.39057235 16.63636893 9 19 C9.2789209 20.06782715 9.2789209 20.06782715 9.56347656 21.15722656 C10.76025642 25.75972477 11.8860374 30.37681617 13 35 C13.29003906 36.13308594 13.58007812 37.26617187 13.87890625 38.43359375 C15.53959105 45.1164461 16.43962832 51.53744328 16.7890625 58.41796875 C16.83725022 60.98525178 16.83725022 60.98525178 18 63 C18.0969462 65.14937017 18.12796872 67.3018142 18.12939453 69.45336914 C18.13202301 70.44626198 18.13202301 70.44626198 18.13470459 71.45921326 C18.13911264 73.65122077 18.13618914 75.84314789 18.1328125 78.03515625 C18.13348576 79.55447912 18.13445597 81.07380189 18.13571167 82.59312439 C18.13718716 85.77832057 18.13503857 88.96348872 18.13037109 92.14868164 C18.12466904 96.24020901 18.12795675 100.33167086 18.13394356 104.42319584 C18.13754906 107.5603434 18.13641072 110.69747531 18.13381577 113.83462334 C18.13314672 115.34377487 18.13397415 116.85292781 18.13629532 118.36207771 C18.1388222 120.46676552 18.13498103 122.57134565 18.12939453 124.67602539 C18.12820114 126.4756649 18.12820114 126.4756649 18.12698364 128.31166077 C18 131 18 131 17 132 C16.71262418 134.67761276 16.55168541 137.35570146 16.37890625 140.04296875 C15.96817246 143.24838604 15.05763596 145.9492739 14 149 C13.52681948 150.90067469 13.05447438 152.80166411 12.60571289 154.70825195 C10.94707195 161.75305348 8.98278853 168.38503356 6 175 C5.61972656 175.86753906 5.23945313 176.73507812 4.84765625 177.62890625 C-5.90311747 201.77521272 -20.11633993 226.0871873 -40 244 C-40.66 244 -41.32 244 -42 244 C-42 236.41 -42 228.82 -42 221 C-42.515625 223.18625 -43.03125 225.3725 -43.5625 227.625 C-45.59868746 235.7114192 -48.99784276 242.70393245 -53 250 C-53.66 250 -54.32 250 -55 250 C-55.24621094 250.72574219 -55.49242187 251.45148438 -55.74609375 252.19921875 C-59.39453965 260.34855117 -67.95609621 267.66867324 -75 273 C-75.66 273 -76.32 273 -77 273 C-77 273.66 -77 274.32 -77 275 C-77.66 275 -78.32 275 -79 275 C-79 275.66 -79 276.32 -79 277 C-81.18097687 278.49980342 -83.3418894 279.85860399 -85.625 281.1875 C-86.65052979 281.78751831 -86.65052979 281.78751831 -87.69677734 282.3996582 C-89.79086072 283.6124674 -91.89397947 284.80806486 -94 286 C-95.11375 286.639375 -96.2275 287.27875 -97.375 287.9375 C-106.72972328 292.97465869 -116.47682795 295.72531068 -126.71875 298.38964844 C-128.65869331 298.90868293 -130.58013017 299.49610791 -132.49609375 300.09765625 C-137.01968866 301.26259541 -141.47963727 301.71647343 -146.125 302.125 C-147.04990234 302.20919189 -147.97480469 302.29338379 -148.92773438 302.38012695 C-166.60173602 303.90178079 -166.60173602 303.90178079 -175 302 C-175 301.01 -175 300.02 -175 299 C-173.42412109 298.74476563 -173.42412109 298.74476563 -171.81640625 298.484375 C-163.99439793 297.15556478 -157.11493103 295.68451785 -150 292 C-151.216875 292.165 -152.43375 292.33 -153.6875 292.5 C-175.15780081 294.77411286 -198.56341472 290.32002214 -216 277 C-216 276.34 -216 275.68 -216 275 C-216.5878125 274.73574219 -217.175625 274.47148437 -217.78125 274.19921875 C-223.93423727 270.87357246 -227.9840085 265.15262267 -231 259 C-231 258.34 -231 257.68 -231 257 C-231.66 257 -232.32 257 -233 257 C-242.23812345 233.63083397 -242.8985459 212.31348865 -236 188 C-234.5234375 184.62109375 -234.5234375 184.62109375 -233 182 C-232.49339844 181.08476562 -231.98679688 180.16953125 -231.46484375 179.2265625 C-230.96082031 178.36804688 -230.45679688 177.50953125 -229.9375 176.625 C-229.43089844 175.75101563 -228.92429688 174.87703125 -228.40234375 173.9765625 C-227.93957031 173.32429687 -227.47679687 172.67203125 -227 172 C-226.34 172 -225.68 172 -225 172 C-224.773125 171.278125 -224.54625 170.55625 -224.3125 169.8125 C-222.73664872 166.43567583 -220.79123384 164.44232961 -218 162 C-217.34 162 -216.68 162 -216 162 C-215.79117188 161.43023437 -215.58234375 160.86046875 -215.3671875 160.2734375 C-209.62645215 150.72741473 -192.91390875 143.93242237 -182.75 141.125 C-181.16988403 140.73666641 -179.58764966 140.35628359 -178 140 C-188.04945985 140.81514989 -196.94398847 142.24411023 -206.33984375 145.9765625 C-209 147 -209 147 -211 147 C-210.44841898 143.29305107 -209.11773346 141.89657629 -206.25 139.5625 C-203.74972596 137.48341908 -201.36348628 135.42162326 -199.125 133.0625 C-197 131 -197 131 -195 131 C-195 130.34 -195 129.68 -195 129 C-192.66408512 127.05542671 -190.32176626 125.23377907 -187.875 123.4375 C-187.14941895 122.9010083 -186.42383789 122.3645166 -185.67626953 121.81176758 C-166.5707641 107.81703694 -146.39411933 97.65177813 -123.40234375 91.859375 C-121.19087523 91.30079512 -118.98893388 90.70248238 -116.80078125 90.05859375 C-113.71107484 89.19804859 -110.6422347 88.44409435 -107.515625 87.73828125 C-85.92298569 82.85289701 -65.56651842 76.72164271 -47.62963867 63.33862305 C-45.08434595 61.44110311 -43.03641712 60.01213904 -40 59 C-40 58.34 -40 57.68 -40 57 C-38.6015625 55.66015625 -38.6015625 55.66015625 -36.625 54.0625 C-27.46740173 46.23162092 -20.29826716 37.22876471 -14 27 C-13.58685547 26.33097656 -13.17371094 25.66195312 -12.74804688 24.97265625 C-7.81113869 16.93109446 -2.96799818 9.01474074 0 0 Z " fill="#F4F4F4" transform="translate(470,202)"/>
<path d="M0 0 C8.818033 3.45195726 15.48788284 13.60761962 21.10546875 20.82421875 C21.71132812 21.56414063 22.3171875 22.3040625 22.94140625 23.06640625 C36.10546875 39.32789522 36.10546875 39.32789522 36.10546875 45.82421875 C36.76546875 45.82421875 37.42546875 45.82421875 38.10546875 45.82421875 C38.10546875 47.14421875 38.10546875 48.46421875 38.10546875 49.82421875 C38.76546875 49.82421875 39.42546875 49.82421875 40.10546875 49.82421875 C42.95284434 57.10584723 45.70856369 64.38119778 48.10546875 71.82421875 C46.39640463 73.53328287 44.11045753 73.11540989 41.76953125 73.25390625 C40.65231689 73.32504639 39.53510254 73.39618652 38.3840332 73.46948242 C37.17835693 73.54529541 35.97268066 73.6211084 34.73046875 73.69921875 C12.06447402 75.29545731 -9.72129938 78.92852042 -30.71850586 88.07446289 C-32.89453125 88.82421875 -32.89453125 88.82421875 -36.89453125 88.82421875 C-38.31079102 87.23535156 -38.31079102 87.23535156 -39.5859375 85.02734375 C-40.05580078 84.23328125 -40.52566406 83.43921875 -41.00976562 82.62109375 C-41.72616211 81.36039063 -41.72616211 81.36039063 -42.45703125 80.07421875 C-43.41504327 78.43264527 -44.37462927 76.79198914 -45.3359375 75.15234375 C-45.75560791 74.41918945 -46.17527832 73.68603516 -46.60766602 72.93066406 C-47.85447658 70.7714269 -47.85447658 70.7714269 -49.55810547 68.8449707 C-51.66858901 65.6537993 -50.97154573 63.16004378 -50.47314453 59.49951172 C-49.53235749 55.14966175 -47.8169886 51.35171512 -45.83203125 47.38671875 C-45.42573486 46.55833496 -45.01943848 45.72995117 -44.60083008 44.87646484 C-38.76197287 33.25790113 -15.89699214 -1.47497865 0 0 Z " fill="#EDEDED" transform="translate(205.89453125,10.17578125)"/>
<path d="M0 0 C0 3 0 3 -1.609375 4.796875 C-2.31578125 5.44140625 -3.0221875 6.0859375 -3.75 6.75 C-7.41179684 10.2559757 -9.74079123 13.48158245 -12 18 C-12.66 18 -13.32 18 -14 18 C-14 18.99 -14 19.98 -14 21 C-14.66 21 -15.32 21 -16 21 C-14.02932878 11.34371104 -7.32081806 6.11306888 0 0 Z " fill="#E1E1E1" transform="translate(243,322)"/>
<path d="M0 0 C0.66 0 1.32 0 2 0 C4.27571116 8.03501094 4.27571116 8.03501094 3.125 12.0625 C2.568125 13.0215625 2.568125 13.0215625 2 14 C1.67 14 1.34 14 1 14 C0.67 12.02 0.34 10.04 0 8 C-1.32 9.32 -2.64 10.64 -4 12 C-2.66666667 8 -1.33333333 4 0 0 Z " fill="#EAEAEA" transform="translate(470,202)"/>
<path d="M0 0 C1.32 0.33 2.64 0.66 4 1 C3.54738642 2.43931117 3.08767021 3.87638999 2.625 5.3125 C2.36976563 6.11300781 2.11453125 6.91351563 1.8515625 7.73828125 C1 10 1 10 -1 13 C-2.53690745 10.58959839 -3.09752136 9.49917715 -2.5390625 6.640625 C-2.23742187 5.85171875 -1.93578125 5.0628125 -1.625 4.25 C-1.32851563 3.45078125 -1.03203125 2.6515625 -0.7265625 1.828125 C-0.48679687 1.22484375 -0.24703125 0.6215625 0 0 Z " fill="#D7D7D7" transform="translate(462,254)"/>
<path d="M0 0 C0.66 0 1.32 0 2 0 C3.15837626 4.05431692 2.83691257 6.21812119 1 10 C0.67 10 0.34 10 0 10 C-0.19412181 8.52168779 -0.38012131 7.04230684 -0.5625 5.5625 C-0.66691406 4.73878906 -0.77132813 3.91507813 -0.87890625 3.06640625 C-0.91886719 2.38449219 -0.95882813 1.70257813 -1 1 C-0.67 0.67 -0.34 0.34 0 0 Z " fill="#E3E3E3" transform="translate(471,206)"/>
</svg>
