<?xml version="1.0" encoding="UTF-8"?>
<!DOCTYPE svg PUBLIC "-//W3C//DTD SVG 1.1//EN" "http://www.w3.org/Graphics/SVG/1.1/DTD/svg11.dtd">
<svg xmlns="http://www.w3.org/2000/svg" version="1.1" width="1072px" height="1072px" style="shape-rendering:geometricPrecision; text-rendering:geometricPrecision; image-rendering:optimizeQuality; fill-rule:evenodd; clip-rule:evenodd" xmlns:xlink="http://www.w3.org/1999/xlink">
<g><path style="opacity:0.999" fill="#ffa201" d="M 138.5,3.5 C 403.167,3.33333 667.834,3.5 932.5,4C 997.616,13.9741 1040.78,50.1407 1062,112.5C 1064.18,120.731 1065.85,129.065 1067,137.5C 1067.67,402.833 1067.67,668.167 1067,933.5C 1056.73,998.207 1020.56,1041.04 958.5,1062C 949.955,1064.31 941.289,1065.98 932.5,1067C 667.833,1067.67 403.167,1067.67 138.5,1067C 73.3837,1057.03 30.217,1020.86 9,958.5C 6.82041,950.269 5.15374,941.935 4,933.5C 3.33333,668.167 3.33333,402.833 4,137.5C 14.2689,72.7935 50.4355,29.9601 112.5,9C 121.237,6.82092 129.903,4.98759 138.5,3.5 Z"/></g>
<g><path style="opacity:1" fill="#fffefe" d="M 79.5,145.5 C 183.833,145.5 288.167,145.5 392.5,145.5C 392.667,279.5 392.5,413.5 392,547.5C 391.689,575.07 387.689,602.07 380,628.5C 364.331,677.833 331.164,708 280.5,719C 250.164,724.909 219.83,724.909 189.5,719C 141.237,706.455 108.071,676.955 90,630.5C 81.9343,604.785 78.601,578.452 80,551.5C 85.3068,534.943 90.3068,518.276 95,501.5C 99.3392,491.494 106.172,483.661 115.5,478C 138.832,467.043 161.999,455.543 185,443.5C 187.626,436.33 189.626,428.997 191,421.5C 192.738,400.513 194.405,379.513 196,358.5C 197.685,347.813 200.518,337.48 204.5,327.5C 205.404,326.791 205.737,325.791 205.5,324.5C 163.5,324.5 121.5,324.5 79.5,324.5C 79.5,264.833 79.5,205.167 79.5,145.5 Z"/></g>
<g><path style="opacity:1" fill="#fffefe" d="M 810.5,298.5 C 810.56,299.043 810.893,299.376 811.5,299.5C 812.5,263.84 812.833,228.173 812.5,192.5C 812.5,177.167 812.5,161.833 812.5,146.5C 872.501,146.688 932.501,147.021 992.5,147.5C 992.349,338.5 992.016,529.5 991.5,720.5C 931.833,720.5 872.167,720.5 812.5,720.5C 809.88,601.782 764.88,502.615 677.5,423C 616.141,372.165 545.808,341.165 466.5,330C 451.523,328.17 436.523,326.67 421.5,325.5C 421.5,266.167 421.5,206.833 421.5,147.5C 472.921,145.483 523.254,151.983 572.5,167C 658.087,192.443 734.087,234.443 800.5,293C 803.727,295.112 807.06,296.945 810.5,298.5 Z"/></g>
<g><path style="opacity:1" fill="#ffb431" d="M 812.5,192.5 C 812.833,228.173 812.5,263.84 811.5,299.5C 810.893,299.376 810.56,299.043 810.5,298.5C 811.167,263.167 811.833,227.833 812.5,192.5 Z"/></g>
<g><path style="opacity:1" fill="#ffa202" d="M 226.5,306.5 C 228.467,306.261 230.301,306.594 232,307.5C 237.147,320.614 242.48,333.614 248,346.5C 249.872,353.116 251.539,359.783 253,366.5C 254.833,388.33 257.833,409.997 262,431.5C 264.472,437.915 267.138,444.248 270,450.5C 295.739,462.887 321.905,474.387 348.5,485C 354.86,490.02 359.693,496.187 363,503.5C 367.834,518.173 372.668,532.84 377.5,547.5C 377.833,550.5 376.5,551.833 373.5,551.5C 342.774,546.651 312.107,541.485 281.5,536C 278.5,535.333 275.5,535.333 272.5,536C 270.951,537.214 269.785,538.714 269,540.5C 267.045,554.787 266.045,569.12 266,583.5C 277.427,598.017 289.094,612.35 301,626.5C 306.562,634.604 306.896,642.937 302,651.5C 300.333,654.833 298.667,658.167 297,661.5C 295.192,663.396 293.025,663.896 290.5,663C 282.833,655.333 275.167,647.667 267.5,640C 266.552,639.517 265.552,639.351 264.5,639.5C 264.339,646.153 261.006,648.32 254.5,646C 252.889,639.993 252.056,633.826 252,627.5C 249.675,622.164 246.175,617.664 241.5,614C 236.758,611.771 232.925,612.938 230,617.5C 223.662,623.637 221.829,630.97 224.5,639.5C 224.278,646.876 220.611,649.376 213.5,647C 212.914,644.72 212.08,642.553 211,640.5C 202.442,648.723 194.275,657.223 186.5,666C 183.692,666.92 181.525,666.087 180,663.5C 176.53,658.226 173.864,652.56 172,646.5C 171.233,642.406 171.566,638.406 173,634.5C 181.426,619.99 191.093,606.323 202,593.5C 203.92,590.661 205.587,587.661 207,584.5C 206.247,572.803 204.913,561.136 203,549.5C 202.452,545.713 201.286,542.213 199.5,539C 198,538.5 196.5,538 195,537.5C 162.472,544.732 129.972,552.065 97.5,559.5C 95.4042,558.408 94.0708,556.741 93.5,554.5C 98.5786,539.007 103.079,523.34 107,507.5C 109.492,501.353 113.326,496.186 118.5,492C 144.545,479.417 170.378,466.251 196,452.5C 200.134,442.167 203.134,431.501 205,420.5C 206.768,400.864 208.101,381.197 209,361.5C 212.927,342.553 218.76,324.22 226.5,306.5 Z"/></g>
<g><path style="opacity:1" fill="#fff9ee" d="M 79.5,145.5 C 79.5,205.167 79.5,264.833 79.5,324.5C 121.5,324.5 163.5,324.5 205.5,324.5C 205.737,325.791 205.404,326.791 204.5,327.5C 162.847,325.505 120.847,324.839 78.5,325.5C 78.1676,265.331 78.5009,205.331 79.5,145.5 Z"/></g>
<g><path style="opacity:1" fill="#fffefe" d="M 421.5,413.5 C 531.991,419.977 617.824,468.977 679,560.5C 709.096,609.542 724.596,662.875 725.5,720.5C 695.5,720.5 665.5,720.5 635.5,720.5C 631.987,638.951 595.653,576.784 526.5,534C 494.113,515.157 459.113,504.991 421.5,503.5C 421.5,473.5 421.5,443.5 421.5,413.5 Z"/></g>
<g><path style="opacity:1" fill="#fffefe" d="M 421.5,590.5 C 483.791,598.392 523.958,632.392 542,692.5C 543.713,701.776 544.88,711.109 545.5,720.5C 515.5,720.5 485.5,720.5 455.5,720.5C 453.216,699.592 441.883,686.592 421.5,681.5C 421.5,651.167 421.5,620.833 421.5,590.5 Z"/></g>
<g><path style="opacity:1" fill="#fffefe" d="M 189.5,894.5 C 184.864,925.62 166.697,940.62 135,939.5C 101.805,939.514 82.9712,923.18 78.5,890.5C 91.6179,888.03 104.785,885.697 118,883.5C 119.107,883.585 120.107,883.919 121,884.5C 123.927,895.878 130.76,899.045 141.5,894C 143.496,891.838 144.83,889.338 145.5,886.5C 146.498,857.338 146.831,828.005 146.5,798.5C 160.833,798.5 175.167,798.5 189.5,798.5C 189.5,830.5 189.5,862.5 189.5,894.5 Z"/></g>
<g><path style="opacity:1" fill="#ffefd3" d="M 189.5,894.5 C 189.5,862.5 189.5,830.5 189.5,798.5C 175.167,798.5 160.833,798.5 146.5,798.5C 146.831,828.005 146.498,857.338 145.5,886.5C 145.5,856.833 145.5,827.167 145.5,797.5C 160.5,797.5 175.5,797.5 190.5,797.5C 190.832,830.004 190.498,862.338 189.5,894.5 Z"/></g>
<g><path style="opacity:1" fill="#ffedce" d="M 372.5,836.5 C 371.509,830.021 371.176,823.354 371.5,816.5C 358.833,816.5 346.167,816.5 333.5,816.5C 333.824,823.354 333.491,830.021 332.5,836.5C 332.5,829.5 332.5,822.5 332.5,815.5C 345.833,815.5 359.167,815.5 372.5,815.5C 372.5,822.5 372.5,829.5 372.5,836.5 Z"/></g>
<g><path style="opacity:1" fill="#fffefc" d="M 372.5,836.5 C 378.645,837.49 384.978,837.823 391.5,837.5C 391.5,848.5 391.5,859.5 391.5,870.5C 385.167,870.5 378.833,870.5 372.5,870.5C 372.055,879.94 372.555,889.274 374,898.5C 375.214,900.049 376.714,901.215 378.5,902C 383.155,902.499 387.821,902.666 392.5,902.5C 392.832,914.186 392.499,925.852 391.5,937.5C 389.885,938.154 388.218,938.654 386.5,939C 356.874,944.462 339.041,932.628 333,903.5C 332.5,892.505 332.333,881.505 332.5,870.5C 328.5,870.5 324.5,870.5 320.5,870.5C 320.5,859.167 320.5,847.833 320.5,836.5C 324.5,836.5 328.5,836.5 332.5,836.5C 333.491,830.021 333.824,823.354 333.5,816.5C 346.167,816.5 358.833,816.5 371.5,816.5C 371.176,823.354 371.509,830.021 372.5,836.5 Z"/></g>
<g><path style="opacity:1" fill="#fffefe" d="M 448.5,816.5 C 473.878,813.44 493.045,822.774 506,844.5C 508.289,850.324 509.956,856.324 511,862.5C 511.5,888.165 511.667,913.831 511.5,939.5C 496.5,939.5 481.5,939.5 466.5,939.5C 466.667,915.164 466.5,890.831 466,866.5C 463.265,860.878 459.099,859.378 453.5,862C 451.513,863.319 450.346,865.152 450,867.5C 449.5,891.498 449.333,915.498 449.5,939.5C 434.5,939.5 419.5,939.5 404.5,939.5C 404.333,913.165 404.5,886.831 405,860.5C 409.14,841.687 419.973,828.187 437.5,820C 441.333,818.966 444.999,817.8 448.5,816.5 Z"/></g>
<g><path style="opacity:1" fill="#fffefc" d="M 576.5,864.5 C 584.167,864.5 591.833,864.5 599.5,864.5C 599.737,863.209 599.404,862.209 598.5,861.5C 595.194,852.841 588.861,849.341 579.5,851C 569.657,856.346 564.99,864.679 565.5,876C 564.698,886.728 568.698,895.061 577.5,901C 584.981,902.92 591.314,901.087 596.5,895.5C 604.479,905.313 612.646,914.98 621,924.5C 621.667,925.167 621.667,925.833 621,926.5C 605.946,937.514 589.112,941.681 570.5,939C 532.946,928.404 516.446,903.57 521,864.5C 532.766,828.358 557.599,812.525 595.5,817C 620.221,823.387 636.054,838.887 643,863.5C 643.5,870.826 643.666,878.159 643.5,885.5C 620.833,885.5 598.167,885.5 575.5,885.5C 575.04,882.023 574.707,878.523 574.5,875C 574.379,871.218 575.046,867.718 576.5,864.5 Z"/></g>
<g><path style="opacity:1" fill="#fffdfb" d="M 665.5,815.5 C 678.833,815.5 692.167,815.5 705.5,815.5C 705.5,822.5 705.5,829.5 705.5,836.5C 712.167,836.5 718.833,836.5 725.5,836.5C 725.5,847.833 725.5,859.167 725.5,870.5C 718.833,870.5 712.167,870.5 705.5,870.5C 705.055,879.94 705.555,889.274 707,898.5C 708.214,900.049 709.714,901.215 711.5,902C 716.155,902.499 720.821,902.666 725.5,902.5C 725.5,914.167 725.5,925.833 725.5,937.5C 711.9,940.787 698.567,939.953 685.5,935C 675.922,929.072 669.755,920.572 667,909.5C 665.647,896.542 665.147,883.542 665.5,870.5C 661.5,870.5 657.5,870.5 653.5,870.5C 653.5,859.167 653.5,847.833 653.5,836.5C 657.5,836.5 661.5,836.5 665.5,836.5C 665.5,829.5 665.5,822.5 665.5,815.5 Z"/></g>
<g><path style="opacity:1" fill="#fffefd" d="M 845.5,881.5 C 850.167,881.5 854.833,881.5 859.5,881.5C 859.5,883.167 859.5,884.833 859.5,886.5C 851.11,924.363 827.444,941.863 788.5,939C 754.786,930.779 737.452,909.279 736.5,874.5C 738.677,849.136 751.343,830.969 774.5,820C 807.599,809.698 833.766,818.865 853,847.5C 856.294,853.079 858.128,859.079 858.5,865.5C 843.175,866.404 827.842,866.57 812.5,866C 802.523,856.914 793.023,857.414 784,867.5C 778.774,879.551 781.941,888.718 793.5,895C 804.281,897.688 811.614,893.855 815.5,883.5C 825.432,881.889 835.432,881.223 845.5,881.5 Z"/></g>
<g><path style="opacity:1" fill="#fffefd" d="M 920.5,815.5 C 957.015,813.539 980.849,829.872 992,864.5C 996.371,897.094 983.871,920.594 954.5,935C 914.493,946.743 886.326,933.576 870,895.5C 862.813,853.521 879.646,826.854 920.5,815.5 Z"/></g>
<g><path style="opacity:1" fill="#fffefc" d="M 246.5,822.5 C 281.248,819.61 304.081,834.61 315,867.5C 316.131,873.471 316.464,879.471 316,885.5C 313.986,891.441 309.819,894.941 303.5,896C 284.991,898.409 270.324,892.075 259.5,877C 266.047,872.895 273.047,869.562 280.5,867C 280.957,866.586 281.291,866.086 281.5,865.5C 279.684,864.185 278.017,862.685 276.5,861C 266.53,860.154 256.697,860.987 247,863.5C 245.833,863.333 244.667,863.167 243.5,863C 239.759,860.268 235.759,857.934 231.5,856C 225.894,854.294 222.894,856.294 222.5,862C 222.631,864.253 223.131,866.419 224,868.5C 226.915,871.627 229.582,874.96 232,878.5C 232.584,888.506 233.25,898.506 234,908.5C 235.5,910 237,911.5 238.5,913C 239.6,913.432 240.267,912.932 240.5,911.5C 242.022,904.745 243.855,898.079 246,891.5C 246.561,890.978 247.228,890.645 248,890.5C 258.309,897.45 269.142,903.617 280.5,909C 287.256,911.879 294.256,913.879 301.5,915C 302.428,915.388 303.095,916.055 303.5,917C 287.506,936.145 267.173,943.145 242.5,938C 214.977,928.471 200.311,909.138 198.5,880C 201.312,849.698 217.312,830.531 246.5,822.5 Z"/></g>
<g><path style="opacity:1" fill="#ffe5b8" d="M 372.5,836.5 C 379.167,836.5 385.833,836.5 392.5,836.5C 392.828,848.012 392.495,859.346 391.5,870.5C 391.5,859.5 391.5,848.5 391.5,837.5C 384.978,837.823 378.645,837.49 372.5,836.5 Z"/></g>
<g><path style="opacity:1" fill="#ffa40c" d="M 925.5,859.5 C 935.679,858.172 942.846,862.172 947,871.5C 948.908,882.183 945.075,890.016 935.5,895C 918.205,896.028 911.039,887.861 914,870.5C 916.412,865.252 920.246,861.586 925.5,859.5 Z"/></g>
<g><path style="opacity:1" fill="#ffc664" d="M 598.5,861.5 C 599.404,862.209 599.737,863.209 599.5,864.5C 591.833,864.5 584.167,864.5 576.5,864.5C 584.057,864.152 591.39,863.152 598.5,861.5 Z"/></g>
<g><path style="opacity:1" fill="#ffd387" d="M 845.5,881.5 C 850.305,880.513 855.305,880.179 860.5,880.5C 860.795,882.735 860.461,884.735 859.5,886.5C 859.5,884.833 859.5,883.167 859.5,881.5C 854.833,881.5 850.167,881.5 845.5,881.5 Z"/></g>
</svg>
